<svg xmlns="http://www.w3.org/2000/svg" viewBox="0 0 231.09 235.7"><defs><style>.clss-1{fill:#ade5e9;}.clss-2{fill:#84d8de;}.clss-3{fill:#d6f2f4;}.clss-4{fill:#82d7de;}.clss-5{fill:#ffbdbd;stroke:#b1eff9;stroke-miterlimit:10;stroke-width:3px;}.clss-6{fill:#32bec8;}.clss-7{fill:#e61e14;}.clss-8{fill:#f66;}.clss-9{fill:#ffacac;}.clss-10{fill:#ffd7d7;}</style></defs><title>svg_prinsjesdag</title><g id="bye"><polygon class="clss-1" points="26.2 138.48 0 211.07 1.57 235.69 228.99 235.69 231.09 209.5 208.03 137.63 26.2 138.48"/><polygon class="clss-1" points="26.2 138.48 21.23 27.79 217.87 27.79 208.03 137.63 26.2 138.48"/><polygon class="clss-1" points="21.23 27.79 27 21 210.53 21 217.87 27.79 21.23 27.79"/><polygon class="clss-2" points="28.3 142 3.49 210 228.12 210 205.94 141.07 28.3 142"/><polygon class="clss-3" points="28.68 135.93 205.65 134.52 208.19 93.96 213.55 30.12 24.66 30.83 28.61 135.57 28.68 135.93"/><polyline class="clss-3" points="28.3 156.73 206.13 155.68 220.7 203.64 222.23 209.99 10.27 209.99 12.39 204.7 28.3 156.73 28.3 142"/><rect class="clss-4" x="181.6" y="219.5" width="21.82" height="10.39" transform="translate(384.9 449.5) rotate(-179.97)"/><circle class="clss-1" cx="198.05" cy="224.49" r="2.71"/><line class="clss-5" x1="186.27" y1="227.26" x2="186.28" y2="222.06"/><rect class="clss-4" x="27.68" y="219.57" width="21.82" height="10.39" transform="translate(-0.69 0.12) rotate(-0.18)"/><circle class="clss-1" cx="33.05" cy="224.99" r="2.71" transform="translate(-0.69 0.1) rotate(-0.18)"/><line class="clss-5" x1="44.82" y1="222.18" x2="44.83" y2="227.38"/><rect class="clss-4" x="87.41" y="223.63" width="60.96" height="2.08" transform="translate(235.79 449.33) rotate(180)"/><rect class="clss-6" x="96.59" y="220.5" width="42.6" height="8.33" transform="translate(235.79 449.33) rotate(180)"/><rect class="clss-4" x="146.61" y="220.5" width="4.33" height="8.33" transform="translate(297.55 449.33) rotate(180)"/><rect class="clss-4" x="85.25" y="220.5" width="4.33" height="8.33" transform="translate(174.82 449.33) rotate(180)"/></g><g id="blokjes_1" data-name="blokjes 1"><rect class="clss-7" x="70.58" y="176.13" width="13.28" height="13.28" transform="translate(259.99 105.55) rotate(90)"/><rect class="clss-7" x="55.64" y="176.13" width="13.28" height="13.28" transform="translate(245.05 120.49) rotate(90)"/><rect class="clss-7" x="85.63" y="176.13" width="13.28" height="13.28" transform="translate(275.04 90.51) rotate(90)"/><rect class="clss-7" x="100.68" y="176.13" width="13.28" height="13.28" transform="translate(290.09 75.46) rotate(90)"/></g><g id="blokjes_2" data-name="blokjes 2"><rect class="clss-8" x="160.62" y="176.13" width="13.28" height="13.28"/><rect class="clss-8" x="145.68" y="176.13" width="13.28" height="13.28"/><rect class="clss-8" x="160.62" y="161.09" width="13.28" height="13.28"/><rect class="clss-8" x="160.62" y="146.04" width="13.28" height="13.28"/></g><g id="blokjes_3" data-name="blokjes 3"><rect class="clss-9" x="130.69" y="161.14" width="13.28" height="13.28"/><rect class="clss-9" x="130.75" y="176.13" width="13.28" height="13.28"/><rect class="clss-9" x="145.68" y="161.09" width="13.28" height="13.28"/><rect class="clss-9" x="145.68" y="146.04" width="13.28" height="13.28"/></g><g id="blokjes_4" data-name="blokjes 4"><rect class="clss-8" x="115.72" y="161.09" width="13.28" height="13.28" transform="translate(-45.36 290.09) rotate(-90)"/><rect class="clss-8" x="115.72" y="176.02" width="13.28" height="13.28" transform="translate(-60.3 305.02) rotate(-90)"/><rect class="clss-8" x="100.68" y="161.09" width="13.28" height="13.28" transform="translate(-60.41 275.04) rotate(-90)"/><rect class="clss-8" x="85.63" y="161.09" width="13.28" height="13.28" transform="translate(-75.46 259.99) rotate(-90)"/></g><g id="blokjes_5" data-name="blokjes 5"><rect class="clss-10" x="130.69" y="130.93" width="13.28" height="13.28"/><rect class="clss-10" x="130.75" y="145.92" width="13.28" height="13.28"/><rect class="clss-10" x="145.68" y="130.87" width="13.28" height="13.28"/></g><g id="blokjes_6" data-name="blokjes 6"><rect class="clss-7" x="115.75" y="115.83" width="13.28" height="13.28" transform="translate(244.77 244.94) rotate(180)"/><rect class="clss-7" x="115.75" y="100.9" width="13.28" height="13.28" transform="translate(244.77 215.07) rotate(180)"/><rect class="clss-7" x="115.75" y="130.88" width="13.28" height="13.28" transform="translate(244.77 275.04) rotate(180)"/><rect class="clss-7" x="115.75" y="145.93" width="13.28" height="13.28" transform="translate(244.77 305.13) rotate(180)"/></g><g id="blokjes_7" data-name="blokjes 7"><rect class="clss-8" x="68.92" y="70.8" width="13.28" height="13.28" transform="translate(151.12 154.88) rotate(180)"/><rect class="clss-8" x="83.86" y="70.8" width="13.28" height="13.28" transform="translate(180.99 154.88) rotate(180)"/><rect class="clss-8" x="68.92" y="85.85" width="13.28" height="13.28" transform="translate(151.12 184.97) rotate(180)"/><rect class="clss-8" x="68.92" y="100.9" width="13.28" height="13.28" transform="translate(151.12 215.07) rotate(180)"/></g><g id="blokjes_8" data-name="blokjes 8"><rect class="clss-9" x="144.82" y="42.53" width="13.28" height="13.28"/><rect class="clss-9" x="144.88" y="57.52" width="13.28" height="13.28"/><rect class="clss-9" x="159.82" y="42.47" width="13.28" height="13.28"/><rect class="clss-9" x="159.82" y="27.43" width="13.28" height="13.28"/></g><g id="blokjes_9" data-name="blokjes 9"><rect class="clss-10" x="114.87" y="3.51" width="13.28" height="13.28"/><rect class="clss-10" x="114.92" y="18.5" width="13.28" height="13.28"/><rect class="clss-10" x="129.86" y="3.45" width="13.28" height="13.28"/></g></svg>
