<svg xmlns="http://www.w3.org/2000/svg" viewBox="0 0 700 600"><defs><style>.cls-1{fill:#ade5e9;}.cls-2{fill:#84d8de;}.cls-3{fill:#32bec8;}.cls-4{fill:#d6f2f4;}.cls-5{fill:#82d7de;}.cls-6{fill:#ffbdbd;stroke:#b1eff9;stroke-miterlimit:10;stroke-width:3px;}.cls-7{fill:#ffdede;}.cls-8{fill:#ffacac;}.cls-9{fill:#ffe0e0;}.cls-10{fill:#1e888e;}.cls-11{fill:#ffa3a3;}</style></defs><title>svg_prinsjesdag</title><g id="koffer1"><polygon class="cls-1" points="521.35 140.78 572.43 341.64 150.28 359.28 177.55 156.69 521.35 140.78"/><polygon class="cls-2" points="572.43 341.64 562.05 354.52 164.67 371.13 150.28 359.28 572.43 341.64"/><polygon class="cls-2" points="516.85 145.65 182.29 162.21 172.72 237 158.26 354.67 565.71 336.35 517.02 146.29 516.85 145.65"/><polygon class="cls-3" points="512.45 356.69 515.46 348.8 492.58 350.27 493.1 357.45 512.45 356.69"/><polygon class="cls-3" points="212.76 369.21 209.1 361.6 232.02 361.16 232.1 368.36 212.76 369.21"/><polygon class="cls-1" points="162.3 115.11 114.3 267.78 119.69 318.67 590.88 298.98 589.35 253.09 535.36 106.2 162.3 115.11"/><polygon class="cls-4" points="165.75 118.49 119.48 268.92 585.06 254.6 531.33 110.7 165.75 118.49"/><rect class="cls-5" x="169.84" y="282.4" width="45.64" height="21.73" transform="translate(-12.08 8.3) rotate(-2.39)"/><circle class="cls-1" cx="181.1" cy="294.18" r="5.67" transform="translate(-12.12 7.82) rotate(-2.39)"/><line class="cls-6" x1="205.47" y1="287.36" x2="205.92" y2="298.22"/><rect class="cls-5" x="288.52" y="278.52" width="127.5" height="4.35"/><rect class="cls-5" x="495.32" y="268.8" width="45.64" height="21.73" transform="translate(1047.49 537.45) rotate(177.61)"/><circle class="cls-1" cx="529.7" cy="278.75" r="5.67" transform="translate(-11.18 22.36) rotate(-2.39)"/><line class="cls-6" x1="505.33" y1="285.57" x2="504.88" y2="274.71"/><rect class="cls-3" x="307.72" y="274.16" width="89.11" height="17.43"/><rect class="cls-5" x="281.85" y="276.77" width="17.79" height="7.85" transform="translate(559.06 -21.51) rotate(87.61)"/><rect class="cls-5" x="404.9" y="271.63" width="17.79" height="7.85" transform="translate(671.84 -149.38) rotate(87.61)"/><path class="cls-7" d="M700,.08,633.44,144.25c-2.35,11.18-11.43,30.75-14,39.86-3.2,11.41-12,26.13-17.57,31.72s-23.15,8.41-23.15,8.41-17.89-48.19-19.12-52-7-3.47-15.65-5.07-19.35.33-23.67-1.27-4-8.79-2.47-12c1.74-3.61,24.14-5.18,28.14-6s24-4,31.15-9.55C584,133,629.31,17.44,633.41,6.94L636.2.08Z"/><path class="cls-7" d="M184.38,174.62c-4.32,1.6-15-.33-23.67,1.27s-19.29,5.73-20.52,9.56-16.37,52.44-16.37,52.44-15.43-7.73-21-13.33-14.37-20.3-17.57-31.72-13.79-31-13.79-40.12v2.09L0,.08H71.44s48.94,141.4,56.13,147,27.16,8.73,31.15,9.56,26.4,2.4,28.13,6C188.4,165.83,188.71,173,184.38,174.62Z"/><path class="cls-1" d="M349.1,201.14l2.81-.11.4,5.83-2.81.11ZM334.55,175.9l2.81-.11.4,5.83-2.81.11Zm52.09-6.25c-2.33.09-2.64.49-4.12.54-1.22,0-2.4-.32-2.67-1,0-.16-.24-.21-.33,0-.48,1.59,1,2.25,2.49,2.19s2.42-.95,4.66-1.31c1-.18,1.66-.09,1.65-.31s-1.46-.16-1.68-.16m16,5.24c2,.72,3.5-.38,3.44-1.29,0-.16-.12-.13-.19-.1-1.73.73-2.79-.67-2.45-2.14a3.92,3.92,0,0,0-1.55-4.77c-2.3,1.08-4-.51-3.65-1.32.1-.22.28-.26.3,0,0,.55.81.93,1.36.91,1,0,2.64-.9,2.71-2.12-2.52-1.09-6.64-.46-7.29,1.82-.06.28-.54.27-.52,0a2.57,2.57,0,0,1,1.77-2.28c1.55-.67.93-1.53.47-1.84-.19-.13-.53-.09-.4,0,.68.77-.62,1.18-2.48,1.09-3.95-.23-5.13.89-5.3,1.64-.84.2-4.07,1.7-4,2.22a.92.92,0,0,0,.56.61,2.12,2.12,0,0,0,1.08,1.7c4-2,5.32-.34,5,.91,0,0-.71.47-3.48.58a2.77,2.77,0,0,0,.44.95s-.59.63-.1,1.16a8,8,0,0,1,3.87-.87s1.71,1.73-4.11,2.81-7.42,5.31-7.27,7.56c0,.11.05.19.2.16,4.73-.84,7.16,2.73,13.31,2.08a2.58,2.58,0,0,1-.12-2.2,4.93,4.93,0,0,0,2.61,1.86c2.16-.47,3.55-1.29,3.85-1.78a2.9,2.9,0,0,1-1.09-4s1.6,1.68,4.57.63c.29-.12.21-.23,0-.28-4.18-.83-1.69-3.52-1.45-3.78m-13.87-8.52c0-.75,1-.95,3.35-1a2,2,0,0,1-3.35,1m-71.53,6.33c-1.52.06-1.84-.32-4.17-.23-.19,0-1.66.06-1.65.28s.67.08,1.68.18c2.28.19,3.22,1,4.81.95s2.87-.85,2.17-2.37c-.09-.27-.31-.18-.33,0-.17.72-1.29,1.15-2.51,1.2m-23,5.19c.06.91,1.73,1.89,3.6,1,.28.27,3.12,2.72-.92,3.87-.18.06-.21.2.06.27,3.1.82,4.46-1,4.46-1a2.79,2.79,0,0,1-.54,4A7.36,7.36,0,0,0,305,187.6a4.65,4.65,0,0,0,2.34-2,2.61,2.61,0,0,1,.19,2.2c6.21.2,8.14-3.57,13-3.09.11,0,.18-.06.17-.17-.16-2.28-2.33-6.34-8.27-7S307.9,175,307.9,175a8.27,8.27,0,0,1,4,.57c.41-.57-.26-1.15-.26-1.15a2.6,2.6,0,0,0,.3-1c-2.77.11-3.55-.31-3.55-.31-.49-1.2.53-3,4.81-1.29a2,2,0,0,0,.84-1.77.77.77,0,0,0,.48-.65c0-.52-3.46-1.77-4.32-1.9-.27-.73-1.64-1.76-5.5-1.22-1.84.24-3.19-.07-2.62-.89.1-.14-.23-.16-.41,0-.42.35-1,1.25.72,1.79a2.64,2.64,0,0,1,2.08,2.13c.06.27-.39.32-.52,0-1-2.23-5.15-2.53-7.51-1.26.23,1.21,2,1.94,3,1.9.52,0,1.27-.46,1.23-1,0-.28.17-.26.29,0,.46.78-1,2.52-3.45,1.6-2.32,1.88-1.2,4-.89,4.86.54,1.44-.32,2.91-2.14,2.32-.11,0-.19,0-.18.12M307,168.68c2.29-.17,3.3,0,3.46.7a2.11,2.11,0,0,1-3.46-.7m41.79-27.51a1.07,1.07,0,0,0-1.22-.95,1,1,0,0,0-1,1,1.43,1.43,0,0,0,.47.89c.4.37.37.57.2.71s-.43.18-1-.07a2.74,2.74,0,0,0-1.24-.26c-.89,0-1.3.46-1.28.85s.5.78,1.39.75a2.62,2.62,0,0,0,1.2-.35c.5-.29.76-.28,1-.15a8.81,8.81,0,0,1-.12,2.52c-1.46.28-2.11,1.18-2.07,1.71.09,1.32,2.07,2,3.21,2.42,1.12-.48,2.95-1.33,2.86-2.65,0-.52-.8-1.38-2.3-1.54a6.71,6.71,0,0,1-.47-2.49c.14-.12.43-.18,1,.07a2.74,2.74,0,0,0,1.24.26c.89,0,1.3-.46,1.28-.85s-.5-.78-1.39-.75a2.63,2.63,0,0,0-1.2.35c-.5.29-.76.28-1,.15s-.25-.32.1-.72a1.33,1.33,0,0,0,.34-.92m-.39,9.87a1.9,1.9,0,0,0-1.95,1.61c0,.9,1,1.63,2.17,1.64a1.9,1.9,0,0,0,1.95-1.61c0-.9-1-1.63-2.17-1.64m1.07,15.49c8.69-.33,13.66.72,13.44.73-.19-3.28-.35-5.09,2.18-4.91-1.56-2.67,4.29-4,4-7.55a2.76,2.76,0,0,0-3.07-2.5c-2,.08-1.6,1-3.26,1.09-.18,0-.41,0-.4.1a1.3,1.3,0,0,0,1.3,1.05c1,0,1-.81,1.76-.84.33,0,.83.19.88,1,.1,1.51-1.11,3.27-2.61,4.63a2,2,0,0,0-1.49-.55,1.64,1.64,0,0,0-1.63,1.69,1.73,1.73,0,0,0,.28.84,4.05,4.05,0,0,1-1.31.38c-.7,0-1.79-.15-1.87-1.31-.18-2.59,4.32-5.05,4.1-8.32-.11-1.57-1.62-3.08-4.55-3-3.14.12-2.4,2.24-5.14,2.35-.11,0-.22,0-.21.12a2,2,0,0,0,2,1.25c1.48-.06,1.79-2,3.12-2.08.52,0,1.27.17,1.36,1.49a9.84,9.84,0,0,1-1.37,4.33,2.22,2.22,0,0,0-1.4-.42,1.83,1.83,0,0,0-1.87,1.92,2.11,2.11,0,0,0,1,1.62,3.17,3.17,0,0,1-2.25,1.27c-1.89.07-2.76-.69-2.82-1.55s2.2-1.38,2.1-2.84a1.66,1.66,0,0,0-1.81-1.5,2.58,2.58,0,0,1-2.89.11,1.56,1.56,0,0,0-1.59,1.63c.1,1.49,2.42,1.73,2.48,2.66s-.7,1.68-2.59,1.75a3.56,3.56,0,0,1-2.41-1.09,1.9,1.9,0,0,0-1.31-3.45,2.26,2.26,0,0,0-1.34.52,10,10,0,0,1-2-4.2c-.09-1.32.63-1.57,1.15-1.59,1.33-.05,1.87,1.89,3.39,1.83a1.83,1.83,0,0,0,1.8-1.39c0-.08-.12-.11-.23-.1-2.74.1-2.29-2.06-5.44-1.94-2.92.11-4.22,1.73-4.11,3.3.23,3.27,5,5.38,5.23,8,.08,1.16-1,1.42-1.68,1.44a3.75,3.75,0,0,1-1.35-.28,1.65,1.65,0,0,0,.16-.86,1.77,1.77,0,0,0-1.85-1.56,1.87,1.87,0,0,0-1.4.66c-1.68-1.26-3.13-2.89-3.24-4.4-.06-.8.41-1,.75-1,.78,0,.83.74,1.87.7a1.21,1.21,0,0,0,1.15-1.15c0-.11-.19-.08-.41-.07-1.67.06-1.44-.91-3.4-.84a2.57,2.57,0,0,0-2.7,2.73c.25,3.55,6.24,4.4,5.06,7.2,2.5-.37,2.59,1.47,2.85,4.72a60.29,60.29,0,0,1,13.49-1.76m16.24,4.21.34,4.84-2.74.1-.36-5.2a95.43,95.43,0,0,0-33.72,2.65,1.58,1.58,0,0,1,1.25-1.7c.11,0,.14-.14,0-.19a2.35,2.35,0,0,0-3.18,1.14c-.74,0-1.88.21-1.83,1,.15,2.23-6.68,3.73-8.26,4a7.08,7.08,0,0,1,4.23,3.29c1.93-1.59,4.24-3,4.76-3.05a.88.88,0,0,1,.83.77c0,.11.16.13.23,0,1-1.22.45-1.48.35-1.83s-.05-1.3,1.51-1.24l1,15-.81.14c-.33.07-3.42-1.69-6.91-3.29s-5.23-.49-9,1.2a15.55,15.55,0,0,1-10.09.58c-4.17,2.48-5.19,9.19-5.19,9.19a12.06,12.06,0,0,1-3.62.72c-3.33.13-4-1.36-4.09-2.24-.26-3.8,6-5.67,5.76-9.41-.06-.91-.87-4.57-7-4.34l-5.51.21a3.35,3.35,0,0,1-3.3-1.58c-.12-.19-.34-.07-.26.06.21.3-.21.78-.14,1.74.1,1.51,1.39,2.37,3.61,2.29a6.77,6.77,0,0,0,2.27-.45c.22-.09.34,0,.23.13a2.33,2.33,0,0,0-.47,2.83c.08.11.19.08.22,0,.44-1.64,2.34-3.24,5.07-3.34,3.33-.13,3.47,2,3.51,2.49.21,3-6.85,5.56-6.56,9.74s6.39,4.92,9.86,4.12c.07,4.27-6.37,6-6.77,2.94,0-.16-.16-.19-.26,0-.75,1.55-.32,2.85,2.26,3.17.19,0,.08.11-.06.2-2.43,1.28-.74,5.93-.53,7.31.32,2-2.36,1.86-2.58,1.81s-.19,0,0,.17c2,1.63,4.23,0,4.23,0,1.77.35.77,1.52-.37,2.14-.18.09-.14.2,0,.19s3,.08,3.38-1.56a3.74,3.74,0,0,0,3.4.42c.5-.21,3-1,3.42,1.11,0,.16.15,0,.22,0,1.8-1.89-.35-2.91-1.51-3a2.42,2.42,0,0,1,3.05.16c.08.08.19.1.18-.09,0-2.32-2.5-2.41-4.06-1.36-.13-.24-.74-1.52,1.71-1.56a.09.09,0,0,0,0-.17,2.75,2.75,0,0,0-3.8.34c-.8.78-2.93.58-3.11.56.08-8,9.71-5.53,10.73-9.43.06-.2.18-.14.22-.06.44.95,3.63,1,4.09-.93,0-.11,0-.19-.12-.11-2.56,2.14-9.14-4-1.14-9.42a15.45,15.45,0,0,1,15.95-1.11c.19.63-.31.84-.64.94-.11,0-.14.12,0,.16a2.28,2.28,0,0,0,2.09-.41c1.57.74.35,1.81-.26,2.11-.14.09-.1.14,0,.16a2.36,2.36,0,0,0,2.52-1.59l.23.1.31,4.51c.44,6.41,10.5,6.94,21.83,12,10.57-5.87,20.5-7.13,20.06-13.57l-.31-4.51.21-.12a2.53,2.53,0,0,0,2.73,1.39c.11,0,.18-.09,0-.17-.65-.25-2.05-1.22-.55-2.08a2.38,2.38,0,0,0,2.13.25c.18-.06.14-.14,0-.17a.78.78,0,0,1-.77-.88c2.3-1.55,8.57-4.22,16-.12,8.75,4.82,3.05,11.39.17,9.46-.12-.08-.15,0-.1.11.72,1.82,3.89,1.56,4.2.61,0-.08.14-.14.23,0,1.56,3.8,10.76.64,12,8.56-.19,0-2.27.39-3.18-.32a2.78,2.78,0,0,0-3.82,0c-.14.12,0,.17,0,.16,2.44-.12,2,1.17,1.92,1.42-1.7-.93-4.16-.61-3.85,1.67,0,.19.09.16.19.08a2.38,2.38,0,0,1,3-.39c-1.14.18-3.13,1.36-1.08,3.1.08.08.24.18.22,0,.11-2.13,2.71-1.54,3.24-1.37a3.66,3.66,0,0,0,3.33-.68c.59,1.61,3.32,1.31,3.58,1.3s.21-.12,0-.19c-1.22-.53-2.41-1.62-.67-2.1,0,0,2.44,1.48,4.21-.3.17-.17.06-.2,0-.16s-2.87.39-2.82-1.6c0-1.38,1.06-6.14-1.51-7.28-.15-.08-.27-.15-.09-.19,2.52-.51,2.73-1.84,1.81-3.33-.12-.19-.27-.13-.26,0,0,3-6.62,1.85-7.14-2.4,3.56.55,9.53-.59,9.23-4.85s-7.66-6.14-7.87-9.19c0-.5-.18-2.61,3.15-2.74A5.68,5.68,0,0,1,415.8,183c0,.05.12.08.22,0,.34-.4.16-2-.86-2.78-.12-.08,0-.22.21-.15a7.15,7.15,0,0,0,2.32.27c2.26-.09,3.38-1,3.27-2.55-.06-.94-.54-1.41-.38-1.72.06-.14-.17-.24-.26-.07a3.07,3.07,0,0,1-3.06,1.83l-5.51.21c-6.14.24-6.44,3.94-6.38,4.85.26,3.74,6.77,5.12,7,8.92.06.91-.46,2.42-3.76,2.54a13.11,13.11,0,0,1-3.7-.44s-1.94-6.6-6.43-8.75a15.49,15.49,0,0,1-10.11.19c-4-1.39-5.84-2.37-9.09-.51s-6.08,3.85-6.45,3.81l-.82-.08-1-15c1.54-.2,1.73.84,1.67,1.12s-.55.66.61,1.8c.08.08.23,0,.22-.06a.79.79,0,0,1,.72-.83c.52,0,3,1.24,5.16,2.67a6.48,6.48,0,0,1,3.76-3.59c-1.64-.1-8.61-1.08-8.76-3.33-.05-.74-1.21-.89-1.95-.81a2.47,2.47,0,0,0-3.33-.89c-.11.06-.06.17.05.19a1.7,1.7,0,0,1,1.48,1.6c-.75-.14-2.48-.43-4.87-.72m22.4,52.45c0-.28-1.26-2-9-1.75l.19,2.7c.32,4.6,10.19-.12,20-1,8.11-.7,10.51.76,10.51.76L408,217.84c-.1-.33-1.94-1.19-7.56-1a40.08,40.08,0,0,0-11.31,1.73l.22,3.22c.05.74-.44,1.12-1.17,1.37m-60.6.23c-7.7.3-8.68,2.15-8.7,2.43-.79-.19-1.3-.53-1.35-1.27l-.22-3.22a40.77,40.77,0,0,0-11.49-.86c-5.62.22-7.33,1.22-7.39,1.55l-1.05,6.19s2.19-1.63,10.35-1.56c9.87.09,20.35,4,20-.57l-.19-2.7m25.63-3.77c15.83-.61,31.93-.62,34.17,1.09.16.13.22,0,.21-.12l-.43-6.25c-.13-1.84-16.78-2.25-34.42-1.58s-34.15,2.39-34,4.2l.43,6.25c0,.11.05.25.23.1,2-1.87,18-3.09,33.84-3.7m12.06-30a.68.68,0,0,1,.18,1s0,0-.07,0a2.06,2.06,0,0,0-1.6-.57c-.07,0-.07,0,0,0,.34.1,1.37.53,1.1,1.45a.08.08,0,0,1-.11,0,2.88,2.88,0,0,0-1.45-.61l.41,1.59c-1.64.42-3.51-.33-3.79-1.73l1.83-.4a16,16,0,0,0-7.34-1.54c-4,.15-6.29,3.41-6.16,5.31a2.53,2.53,0,0,0,.67,1.69c.79.77,1.34.56,1.58.35.07-.06.11-.06.08,0-.26,1-2,1.07-2.3.56,0-.11-.15-.08-.15,0-.76,2.48-5,0-6.9,3.22a2.88,2.88,0,0,0,1.75.1,1.46,1.46,0,0,1,2.06.31c0,.05,0,.05-.07.06-1.31-.17-1.78.48-1.85.65,1-.37,2.37,0,1.83,1.23,0,.08-.07.06-.11,0a.69.69,0,0,0-.12-.22,1.26,1.26,0,0,0-1.43-.25c.61.2,1.48,1,.09,1.76-.07.06-.11,0-.11,0a.86.86,0,0,0-.92-1,1.73,1.73,0,0,1-1.68-.68c-.51.74-1.71.51-2.27.39-.11,0-.12-.08,0-.11.73-.19,1.7-.62.86-1,0,0-1.56.5-2.23-.63,0-.05,0-.08.07-.06s1.67.57,2-.54c.21-.73.27-2,1.07-2.28-.91-.24-1.28-.78-.62-1.52.07-.06.14-.12.15,0,.23,1.67,4.83.09,4.78-2.25-3.29.73-6.62.28-6.79-2.19s2.87-3.53,2.79-4.69c-.06-.83-1-1-1.48-1a3.38,3.38,0,0,0-2.86,2.15.09.09,0,0,1-.15,0c-.48-.45-.6-1.22-.25-1.45.11-.06,0-.14-.12-.08-.29.15-2.81.08-2.9-1.19,0-.44.14-.7.09-.89s.28-.23.4,0a1.6,1.6,0,0,0,1.69.87c1,0,2.82-.49,4-.54,2.33-.09,3.27,1.17,3.33,2.08.14,2-2.68,2.5-2.55,4.43.1,1.43,2.87,1.77,4.7.34a9.3,9.3,0,0,1,1.89-4.38c5.12,1,6-1.39,8.65-1.49,2.29-.09,5.47,2.85,7.9,3.17l-.46-1.78-.26,0,0-1.49.71,1.08c.08.11.19.1.22,0,.23-.48.69-1.35.69-1.35s.12,1.18.14,1.43c0,.08.08.11.15,0l1.13-1.37s-.23,1-.33,1.59c0,.08.08.11.15,0l1.55-1.22-.74,1.6c0,.08,0,.14.15.08l1.75-1s-.65.77-1.13,1.37c-.07.06,0,.11.12.08,1.09-.32,1.82-.57,1.82-.57L367,188.7c-.07.06-.06.14.08.13l1.67-.06-1.81.68-.16-.13-1.57.36m-4.76,11c-.24.86-1.42.85-1.76.78,0,0,0,0,0-.05.5-.29.66-.58.65-.8,0-.58-1.6-1.18-2.08-1.16s-.57.38-1.42.41a1.82,1.82,0,0,1-1.21-.4c-.08-.05,0-.08,0-.06,1,.13,1.63-.64,1.53-2-.18-2.56-2-2.93-6.21-3.93-.08,0-.08-.08,0-.08a1,1,0,0,0,.65-1.82,5.4,5.4,0,0,1,2.21-.72c3.07-.12,5.58,2.3,6,2.64s1.29.89,1.73.35c.07-.06.11-.06.11,0,.07,1-1.07,1.09-1.53.91,0,0-.08,0-.07,0a6,6,0,0,1-.54,2.92,5.83,5.83,0,0,0,2.44.93c.59,0,.68-.91,1.6-.94a1.41,1.41,0,0,1,.91.32s0,.08-.07.09c-.7.05-1.09.4-.91.86.85-.58,2.19-.55,2.24.71a.06.06,0,0,1-.11,0,1.44,1.44,0,0,0-1.71,0c.67.06,1.82.56.89,1.62,0,.06-.07,0-.07,0,0-.22-.2-.76-1.09-.73s-1.55.69-2.3.06M348,176.33c.69.88,1.51.91,2.1.39,0-.3-.81-.49-2.1-.39m4.9,2.18c1.5.22,2.21-.22,2.34-.56,0-.11.14-.12.18,0,.39.84-.45,1.48-1.23,1.51-1.22,0-1.34-.58-3.24-.7-.19,0-.2-.19-.05-.22a7.14,7.14,0,0,1,2,0m26.65,30.16c.55,1.52,2.87,1.3,3.35,1.25.07,0,.07-.06,0-.08-.76-.33-1.35-.78-1.39-1.33-.07-1,2.32-2.32,3.51-2.37.7,0,1.26.59,2.63.53a3.13,3.13,0,0,0,2.16-.94c0-.06,0-.08-.08-.08a2.34,2.34,0,0,1-2.93-1.6c-.89-2.12-1.26-3.68,0-4.55,1-.73,5.7-2.26,8.28-3.1.14-.06.1-.11,0-.14-.71-.14-1.44-.44-1.6-1.1a1.08,1.08,0,0,1,.58-1.29,10.41,10.41,0,0,0-5.34-1.56c-5.18.2-9.22,5.6-11.33,5.68a1.27,1.27,0,0,1-1-.38c-.08-.05-.15,0-.14.06a1.6,1.6,0,0,0,1.86,1.64,2.6,2.6,0,0,0,.95-.23c.07,0,.11,0,.11.05l0,.33c.13,1.87,2.9,3.81,2.9,3.81-1.12,1-4,2.61-4.84,1.81-.36-.32-2.05-2.32-4-.59-.07.06,0,.14.12.13,1.18,0,2.15.5,1.88,1.42-1.73-.93-4.05-.67-3.89,1.61,0,.11.12.11.19,0,1-1.23,2.82-.49,3.09-.34-1.14.18-3.1,1.28-1.2,3,.08.08.15,0,.15,0,.1-1.22,1-1.45,1.86-1.48,1.63-.06,2.89,1,4.06-.24m-57.25,3.55c.56,0,2.9.08,3.16-1.5,1.3,1.16,2.45,0,4.08-.07a1.77,1.77,0,0,1,2.06,1.33c0,.05.08.08.15,0,1.69-1.89-.42-2.83-1.61-2.92.25-.18,1.93-1,3.12.1.08.05.19,0,.18-.06-.16-2.28-2.5-2.36-4.1-1.31-.36-.9.53-1.51,1.67-1.55.15,0,.18-.09.1-.14-2.19-1.57-3.56.55-3.91.89-.76.86-3.82-.57-5.07-1.43,0,0,2.49-2.14,2.36-4l0-.33c0-.05,0-.08.11-.06a2.68,2.68,0,0,0,1,.16,1.48,1.48,0,0,0,1.62-1.77c0-.14-.08-.13-.15,0a1.25,1.25,0,0,1-.9.45c-2.11.08-6.87-5-12.05-4.78a9.87,9.87,0,0,0-5.1,2,1.15,1.15,0,0,1,.75,1.24c0,.69-.71,1-1.44,1.21-.11,0-.14.09,0,.14,2.68.64,7.54,1.81,8.67,2.46,1.35.78,1.2,2.35.61,4.53a2.22,2.22,0,0,1-2.69,1.81c-.11,0-.11,0-.07.09a3.38,3.38,0,0,0,2.28.77c1.37-.05,1.84-.71,2.55-.73,1.18,0,3.75,1.13,3.82,2.09,0,.52-.48,1-1.2,1.43,0,0,0,.08,0,.08m39.26-32.41-1.34.52-.67-.64,1.16-.32-6-5.57a3.82,3.82,0,0,1-.13-1.32,6.88,6.88,0,0,1,1.7.38l6,5.51.69-.77.71.63-1,.86.55.5a2.64,2.64,0,0,1,2.62.29s0,0,0,0c-.34,0-1.65-.21-1.6.45a1.92,1.92,0,0,1,2.19.55c0,.05,0,.05,0,.06-.26,0-1.2-.2-1.55.11l1.23,1.14c.24.24-.9.95-1.18.71l-1.62-1.48s-4.75,2.14-5.93,2.74a3.47,3.47,0,0,0-1.18-2c1.46-.36,4.48-1.22,4.48-1.22a1.7,1.7,0,0,0,1,.29,1.81,1.81,0,0,0,1.38-.94s0-.06,0,0c-.22.09-.76.28-.92.12Zm-19.15.43c0-.47-.63-2.13.29-3.35A7.31,7.31,0,0,0,340,176c-.19,0-.19-.13,0-.19.72-.28,2.44-.07,2.72-.35a12.48,12.48,0,0,1,.28-1.89c.11,0,2.39.74,2.39.74.48,0,1.06-1.25,1.74-1.61.18-.09.3,0,.23.1a3.71,3.71,0,0,0-.22,2.19c2-.21,2.69.31,2.83.72.49.06,2.39.79,2.41,1.07a.45.45,0,0,1-.27.37.89.89,0,0,1-.42.93c-1.3-.61-3-.41-2.58.79,0,0,.31.24,1.87.18a1.28,1.28,0,0,1-.18.56s.39.32.15.63a5.74,5.74,0,0,0-2.17-.28c-.29.59.06,1.35,2.3,1.54,2.84.22,4.39.77,4.85,3-2.19-.05-3.51.77-5.13,1.44a8.32,8.32,0,0,1-5.35-.15,1.32,1.32,0,0,0-.41-2.16,1.89,1.89,0,0,1-2.37.56c-.08-.05-.08-.11,0-.14a1.34,1.34,0,0,0,.62-2.26,1.51,1.51,0,0,1-2.21-.36,0,0,0,0,1,.07,0,1,1,0,0,0,1.29-1.13"/></g><g id="blokje_1" data-name="blokje 1"><rect class="cls-8" x="443.5" y="303.98" width="46.15" height="20.81" transform="translate(-12.72 19.75) rotate(-2.39)"/></g><g id="blokje_2" data-name="blokje 2"><rect class="cls-9" x="272.77" y="328.9" width="46.15" height="46.15" transform="translate(83.71 -55.96) rotate(12.57)"/></g><g id="blokje_3" data-name="blokje 3"><rect class="cls-10" x="372.17" y="418.47" width="46.15" height="46.15" transform="translate(130.6 -88.68) rotate(15.31)"/></g><g id="blokje_4" data-name="blokje 4"><rect class="cls-11" x="189.55" y="439.03" width="46.15" height="46.15" transform="translate(-41.11 21.23) rotate(-5.21)"/></g><g id="blokje_5" data-name="blokje 5"><rect class="cls-3" x="469.5" y="445.25" width="46.15" height="46.15" transform="translate(-168.17 309.03) rotate(-30)"/></g></svg>
