<svg xmlns="http://www.w3.org/2000/svg" viewBox="0 0 700 420"><defs><style>.cls-1{fill:#ade5e9;}.cls-2{fill:#84d8de;}.cls-3{fill:#32bec8;}.cls-4{fill:#d6f2f4;}.cls-5{fill:#82d7de;}.cls-6{fill:#ffbdbd;stroke:#b1eff9;stroke-miterlimit:10;stroke-width:3px;}</style></defs><title>svg_prinsjesdag</title><g id="koffer"><polygon class="cls-1" points="102.12 325.67 27.09 17.1 649.47 17.48 607.1 302.3 102.12 325.67"/><polygon class="cls-2" points="27.09 17.1 42.34 0.78 628.33 0.07 649.47 17.48 27.09 17.1"/><polygon class="cls-2" points="108.73 318.52 600.14 294.19 614.2 184.35 637.75 24.25 36.96 24.25 108.49 317.58 108.73 318.52"/><polygon class="cls-3" points="115.8 0.37 111.37 11.96 144.38 11.36 143.56 0.18 115.8 0.37"/><polygon class="cls-3" points="557.7 0.65 563.07 11.82 529.4 12.47 529.28 0.66 557.7 0.65"/><polygon class="cls-1" points="629.5 419.75 700 188.21 692.08 120.76 0 123.03 2.24 190.44 81.54 420 629.5 419.75"/><polygon class="cls-4" points="624.43 414.8 692.4 186.53 8.54 188.21 87.46 413.38 624.43 414.8"/><rect class="cls-5" x="552.19" y="136.59" width="69.8" height="33.24" transform="translate(1174.1 306.73) rotate(-179.97)"/><circle class="cls-1" cx="604.82" cy="152.55" r="8.67"/><line class="cls-6" x1="567.15" y1="161.39" x2="567.16" y2="144.78"/><rect class="cls-5" x="59.85" y="136.79" width="69.8" height="33.24" transform="translate(-0.47 0.29) rotate(-0.18)"/><circle class="cls-1" cx="77.03" cy="154.13" r="8.67" transform="translate(-0.48 0.24) rotate(-0.18)"/><line class="cls-6" x1="114.67" y1="145.15" x2="114.72" y2="161.77"/><rect class="cls-5" x="250.92" y="149.78" width="195" height="6.65" transform="translate(696.83 306.21) rotate(180)"/><rect class="cls-3" x="280.28" y="139.78" width="136.28" height="26.66" transform="translate(696.83 306.21) rotate(180)"/><rect class="cls-5" x="440.27" y="139.78" width="13.86" height="26.66" transform="translate(894.41 306.21) rotate(180)"/><rect class="cls-5" x="243.99" y="139.78" width="13.86" height="26.66" transform="translate(501.83 306.21) rotate(180)"/><path class="cls-1" d="M342.58,333.51l4.71,0,.34,8.47-4.71,0Zm-22.9-37.27,4.71,0,.34,8.47-4.71,0Zm87.56-6.45c-3.91,0-4.44.57-6.92.58-2,0-4-.58-4.41-1.58-.07-.24-.38-.32-.56,0-.9,2.28,1.62,3.31,4,3.3,2.67,0,4.1-1.25,7.87-1.66,1.67-.21,2.79,0,2.78-.37s-2.43-.31-2.8-.31m26.45,8.38c3.27,1.15,5.88-.38,5.82-1.7,0-.24-.19-.2-.32-.16-2.94,1-4.63-1.1-4-3.22.33-1.16,1.81-4.4-2.33-7-3.91,1.45-6.67-.94-6-2.1.17-.32.48-.36.5,0,0,.8,1.3,1.39,2.23,1.39,1.61,0,4.48-1.17,4.66-2.93-4.16-1.7-11.08-1-12.31,2.28-.11.4-.92.36-.87,0s.16-2.24,3.1-3.21c2.63-.89,1.65-2.16.89-2.64-.32-.2-.87-.16-.68,0,1.1,1.15-1.11,1.68-4.22,1.45-6.6-.54-8.64,1-9,2.11-1.42.24-6.92,2.26-6.89,3a1.4,1.4,0,0,0,.91.91,3,3,0,0,0,1.71,2.51c6.84-2.74,8.92-.23,8.25,1.57,0,0-1.21.64-5.87.66a3.73,3.73,0,0,0,.68,1.4s-1,.88-.24,1.68a15.08,15.08,0,0,1,6.53-1.06s2.77,2.59-7,3.86-12.73,7.31-12.6,10.59c0,.16.07.28.32.24,8-1,11.83,4.31,22.17,3.68a3.29,3.29,0,0,1-.07-3.2c.86,1.43,2.89,2.35,4.27,2.82,3.64-.57,6-1.7,6.54-2.38,0,0-4-2.06-1.6-5.83,0,0,2.58,2.51,7.61,1.13.49-.16.36-.32,0-.4-6.94-1.41-2.63-5.18-2.21-5.55m-22.73-13c.08-1.08,1.75-1.32,5.66-1.22-.65,2.24-3.74,2.57-5.66,1.22m-120.1,5.6c-2.54,0-3.06-.55-7-.53-.31,0-2.79,0-2.78.33s1.12.16,2.8.35c3.8.39,5.34,1.62,8,1.61,2.42,0,4.86-1.09,3.78-3.33-.14-.4-.51-.28-.56,0-.33,1-2.23,1.6-4.28,1.61m-38.76,6.36c.05,1.32,2.78,2.83,6,1.66.45.4,5.07,4.1-1.76,5.56-.31.08-.36.28.08.4,5.14,1.34,7.52-1.18,7.52-1.18a3.77,3.77,0,0,1-1.13,5.84c.59.68,3.05,1.83,6.73,2.33,1.35-.48,3.29-1.45,4-2.85a3.34,3.34,0,0,1,.19,3.2c10.38.6,13.82-4.76,21.86-3.83.19,0,.31-.08.3-.24-.13-3.31-3.54-9.29-13.45-10.5s-7.35-3.81-7.35-3.81a15.7,15.7,0,0,1,6.61,1c.71-.8-.38-1.68-.38-1.68a3.43,3.43,0,0,0,.56-1.4c-4.65,0-5.92-.62-5.92-.62-.75-1.75,1.07-4.32,8.12-1.63a2.72,2.72,0,0,0,1.51-2.52,1.15,1.15,0,0,0,.83-.92c0-.76-5.69-2.74-7.13-3-.41-1.08-2.65-2.63-9.14-2-3.09.25-5.34-.26-4.34-1.42.18-.2-.38-.24-.68,0-.72.48-1.67,1.76,1.1,2.63,3.08.95,3.34,2.9,3.35,3.18s-.66.44-.87,0c-1.5-3.27-8.47-3.93-12.49-2.19.32,1.76,3.28,2.9,4.89,2.9.87,0,2.15-.61,2.11-1.41,0-.4.3-.36.5,0,.73,1.16-1.84,3.6-5.87,2.14-4,2.61-2.25,5.8-1.76,7,.83,2.11-.7,4.2-3.72,3.25-.19,0-.31-.08-.3.16m21.94-12.7c3.84-.13,5.52.1,5.75,1.18-1.8,1.36-4.92,1.06-5.75-1.18m71.54-37.75c0-1-1-1.43-2-1.43-.81,0-1.78.49-1.74,1.44a2,2,0,0,0,.73,1.32c.64.56.59.84.29,1s-.74.24-1.62-.15a5.17,5.17,0,0,0-2.06-.43c-1.49,0-2.21.61-2.19,1.17s.79,1.16,2.28,1.15a4.93,4.93,0,0,0,2-.45c.85-.4,1.29-.36,1.61-.16s-.1,2.12-.35,3.64c-2.47.33-3.59,1.61-3.56,2.37.08,1.92,3.35,3,5.23,3.66,1.9-.65,5-1.77,4.94-3.69,0-.76-1.26-2-3.75-2.34-.43-1.52-.94-3.43-.64-3.63s.73-.24,1.62.15a5.17,5.17,0,0,0,2.06.43c1.49,0,2.21-.61,2.19-1.17s-.79-1.16-2.28-1.15a5,5,0,0,0-2,.45c-.85.4-1.29.36-1.61.17s-.39-.48.21-1a1.81,1.81,0,0,0,.63-1.32m-1.22,14.26c-1.85.08-3.3,1-3.36,2.23s1.52,2.41,3.55,2.48c1.85-.08,3.3-1,3.36-2.23s-1.52-2.41-3.55-2.48m.91,22.48c14.57,0,22.83,1.72,22.46,1.72-.13-4.75-.3-7.39,3.94-7-2.45-3.95,7.41-5.54,7.2-10.73-.14-3.4-3.87-3.78-5-3.78-3.29,0-2.73,1.41-5.53,1.42-.31,0-.68,0-.68.12a2.08,2.08,0,0,0,2.11,1.59c1.74,0,1.69-1.12,3-1.13a1.37,1.37,0,0,1,1.42,1.43c.09,2.2-2,4.68-4.63,6.57a3.62,3.62,0,0,0-2.45-.87,2.59,2.59,0,0,0-2.82,2.37,2.26,2.26,0,0,0,.42,1.24,7.66,7.66,0,0,1-2.21.49c-1.18,0-3-.31-3.06-2-.15-3.75,7.53-7.1,7.34-11.85-.09-2.28-2.54-4.54-7.44-4.53-5.27,0-4.15,3.13-8.74,3.15-.19,0-.37,0-.36.16a3.27,3.27,0,0,0,3.24,1.91c2.48,0,3.11-2.85,5.34-2.85a2,2,0,0,1,2.2,2.23c.06,1.48-1,3.88-2.54,6.2a4.1,4.1,0,0,0-2.32-.67c-1.92,0-3.3,1.21-3.24,2.69a3,3,0,0,0,1.65,2.39,5.61,5.61,0,0,1-3.84,1.73c-3.16,0-4.57-1.14-4.62-2.38s3.77-1.89,3.68-4c-.06-1.48-1.52-2.27-2.94-2.27a5.31,5.31,0,0,0-2.39.65,5.29,5.29,0,0,0-2.44-.63c-1.43,0-2.82.85-2.76,2.29.09,2.16,4,2.62,4,4s-1.27,2.4-4.43,2.41a6.35,6.35,0,0,1-4-1.7,2.75,2.75,0,0,0,1.46-2.4c-.06-1.44-1.47-2.67-3.46-2.66a4.16,4.16,0,0,0-2.27.69c-1.77-2.31-3-4.7-3-6.18-.08-1.92,1.15-2.24,2-2.24,2.23,0,3,2.83,5.57,2.82a3,3,0,0,0,3.09-1.93c0-.12-.19-.16-.38-.16-4.59,0-3.72-3.1-9-3.09-4.9,0-7.16,2.3-7.07,4.58.19,4.75,8.14,8,8.29,11.79.07,1.68-1.72,2-2.9,2a7.11,7.11,0,0,1-2.25-.47,2.13,2.13,0,0,0,.32-1.24,2.83,2.83,0,0,0-3-2.35,3.38,3.38,0,0,0-2.38.89c-2.74-1.91-5.07-4.34-5.16-6.53a1.24,1.24,0,0,1,1.31-1.44c1.3,0,1.35,1.11,3.08,1.11a1.92,1.92,0,0,0,2-1.6c0-.16-.32-.12-.69-.12-2.79,0-2.35-1.39-5.64-1.38-1.11,0-4.82.42-4.68,3.81.21,5.15,10.19,6.68,8.06,10.68,4.2-.41,4.25,2.26,4.5,7,0,0,8.11-1.82,22.69-1.87m26.95,6.9.28,7-4.59,0-.3-7.55a190.66,190.66,0,0,0-22-1.24A187.94,187.94,0,0,0,311,292a2.37,2.37,0,0,1,2.2-2.4c.19,0,.24-.2.05-.28a4.17,4.17,0,0,0-5.4,1.5c-1.24-.08-3.16.21-3.11,1.29.13,3.23-11.39,5.07-14,5.36a11.39,11.39,0,0,1,6.9,5c3.32-2.21,7.27-4.18,8.14-4.18a1.38,1.38,0,0,1,1.35,1.15c0,.16.26.2.38.08,1.73-1.72.85-2.12.7-2.64s0-1.88,2.6-1.73l.88,21.73-1.36.16c-.56.08-5.63-2.62-11.37-5.11s-8.72-1-15.08,1.29c-8.32,3-16.92.34-16.92.34-7.12,3.38-9.21,13.05-9.21,13.05a23.08,23.08,0,0,1-6.11.86c-5.58,0-6.66-2.17-6.71-3.45-.22-5.51,10.41-7.9,10.19-13.34-.05-1.32-1.2-6.67-11.49-6.63l-9.24,0c-3.84,0-4.85-1.78-5.43-2.46-.2-.28-.56-.12-.43.08.33.44-.39,1.12-.33,2.52.09,2.2,2.19,3.51,5.91,3.49a12.93,12.93,0,0,0,3.82-.53c.37-.12.56.08.38.2-1.63,1.2-1.66,3.52-1,4.08a.22.22,0,0,0,.37,0c.84-2.36,4.1-4.57,8.68-4.58,5.58,0,5.7,3,5.73,3.77.18,4.39-11.78,7.71-11.54,13.78s10.41,7.43,16.26,6.46c-.12,6.19-11,8.35-11.5,3.91,0-.24-.26-.28-.44,0-1.34,2.2-.7,4.12,3.6,4.7.31.08.13.16-.11.28-4.15,1.73-1.58,8.55-1.31,10.55.43,2.91-4.05,2.57-4.43,2.49-.19,0-.31,0-.05.24,3.26,2.47,7.08.18,7.08.18,2.94.59,1.21,2.23-.74,3.08-.31.12-.24.28.07.28s5,.26,5.75-2.1a7.09,7.09,0,0,0,5.68.78c.86-.28,5.09-1.34,5.65,1.78.07.24.25.08.37,0,3.12-2.65-.42-4.23-2.35-4.43a4.56,4.56,0,0,1,5.1.38c.13.12.32.16.3-.12.11-3.36-4.05-3.62-6.72-2.17-.2-.36-1.15-2.23,3-2.17.06,0,.24-.12.05-.24a5.11,5.11,0,0,0-6.38.3c-1.38,1.08-4.93.7-5.24.66.59-11.54,16.57-7.53,18.51-13.12.11-.28.3-.2.37-.08.68,1.4,6,1.58,6.9-1.14.06-.16,0-.28-.19-.16-4.41,3-15.07-6.18-1.36-13.7a29.37,29.37,0,0,1,26.76-.81c.29.92-.57,1.2-1.12,1.32-.19,0-.24.16.07.24,1.19.28,2.8.19,3.51-.49,2.59,1.15.48,2.63-.56,3-.24.12-.18.2.07.24,2.37.27,4.23-1.29,4.32-2.17l.38.16.26,6.55c.37,9.31,17.17,10.57,35.85,18.41,18-8,34.73-9.31,34.35-18.65l-.26-6.55.36-.16c.16.88,2.14,2.43,4.49,2.14.18,0,.31-.12.05-.24-1.07-.4-3.36-1.87-.8-3a4.52,4.52,0,0,0,3.55.47c.31-.08.24-.2.05-.24-.56-.08-1.38-.39-1.23-1.31,3.95-2.13,14.59-5.68,26.82.63,14.38,7.42,4.45,16.64-.25,13.7-.19-.12-.25,0-.18.16,1.1,2.67,6.42,2.45,7,1.09.06-.12.24-.2.37.08,2.4,5.58,18,1.46,19.57,13-.31,0-3.83.45-5.3-.62a5.18,5.18,0,0,0-6.4-.26c-.24.16-.05.24.07.24,4.09-.05,3.23,1.79,3.13,2.15-2.79-1.43-6.93-1.09-6.55,2.22,0,.28.13.24.31.12a4.46,4.46,0,0,1,5.07-.42c-1.91.21-5.32,1.82-2,4.44.13.12.38.28.37,0,.31-3.08,4.63-2.09,5.51-1.82.63.2,3.63.75,5.61-.82.9,2.35,5.48,2.06,5.91,2.06s.37-.16.05-.28c-2-.83-3.94-2.46-1-3.07,0,0,4,2.26,7.06-.22.3-.24.11-.28-.07-.24-.37.08-4.82.42-4.63-2.46.11-2,2.13-8.83-2.1-10.62-.25-.12-.44-.24-.13-.28,4.25-.61,4.67-2.53,3.22-4.72-.2-.28-.44-.2-.43,0-.13,4.39-11.19,2.36-11.81-3.83,5.93,1,16-.37,15.74-6.56s-12.47-9.26-12.65-13.7c0-.72-.15-3.79,5.43-3.81,4.59,0,8,2.21,9.05,4.52,0,.08.19.12.37,0,.6-.56.38-2.84-1.28-4.07-.19-.12,0-.32.36-.2a13.69,13.69,0,0,0,3.87.51c3.78,0,5.71-1.34,5.63-3.53-.05-1.36-.83-2.07-.54-2.51.12-.2-.26-.36-.44-.12-.47.68-1.39,2.48-5.23,2.49l-9.24,0c-10.3,0-11,5.39-11,6.71.22,5.43,11,7.75,11.26,13.26.05,1.32-.91,3.48-6.43,3.5a25.13,25.13,0,0,1-6.17-.82s-2.87-9.66-10.26-13a29.78,29.78,0,0,1-16.94-.22c-6.54-2.21-9.64-3.72-15.18-1.19s-10.39,5.27-11,5.19l-1.37-.16-.88-21.73c2.6-.21,2.84,1.31,2.74,1.71s-1,.92.91,2.63c.13.12.38.08.37-.08a1.21,1.21,0,0,1,1.26-1.16c.87,0,5,1.94,8.48,4.12a10.27,10.27,0,0,1,6.5-5c-2.74-.23-14.35-2-14.48-5.26,0-1.08-2-1.35-3.22-1.27a4.42,4.42,0,0,0-5.52-1.46c-.18.08-.11.24.07.28a2.6,2.6,0,0,1,2.39,2.39c-1.25-.24-4.12-.74-8.12-1.29m34.49,77.05c0-.4-2-3-14.94-3l.16,3.91c.27,6.67,17.07.34,33.54-.39,13.62-.61,17.56,1.62,17.56,1.62l-2.84-8.9c-.14-.48-3.17-1.83-12.6-1.79-11.35,0-16.94,1.46-19,1.94l.19,4.67c0,1.08-.8,1.6-2,1.92m-101.45-2.69c-12.9,0-14.65,2.69-14.7,3.09-1.32-.32-2.14-.83-2.19-1.91l-.19-4.67c-2.07-.47-7.83-1.85-19.18-1.81-9.43,0-12.35,1.4-12.45,1.88l-2.12,8.91s3.76-2.25,17.42-1.74c16.52.62,33.83,6.83,33.56.16l-.16-3.91m43.12-4.18c26.54-.09,53.49.7,57.13,3.28.26.2.37,0,.37-.16l-.37-9.07c-.11-2.67-28-4.1-57.53-4s-57.3,1.75-57.19,4.39l.37,9.07c0,.16.08.36.38.16,3.43-2.61,30.31-3.58,56.85-3.67m21.91-42.77a.91.91,0,0,1,.25,1.48s-.06,0-.12,0a3.72,3.72,0,0,0-2.64-.91c-.12,0-.12,0-.06,0,.56.16,2.27.83,1.76,2.15a.16.16,0,0,1-.19,0,5.21,5.21,0,0,0-2.4-1l.59,2.32c-2.77.53-5.86-.66-6.25-2.69l3.08-.49a30.22,30.22,0,0,0-12.2-2.59c-6.64,0-10.73,4.63-10.62,7.39a3.38,3.38,0,0,0,1,2.47c1.29,1.15,2.21.87,2.63.59.12-.08.18-.08.13,0-.5,1.48-3.48,1.45-3.88.69-.07-.16-.25-.12-.25,0-1.41,3.56-8.38-.21-11.73,4.31a5.52,5.52,0,0,0,2.92.23c2-.81,3,0,3.43.55.07.08,0,.08-.12.08-2.18-.31-3,.61-3.13.85,1.66-.49,4,.07,3,1.87-.06.12-.12.08-.19,0a1,1,0,0,0-.19-.32,2.35,2.35,0,0,0-2.38-.43c1,.32,2.42,1.51,0,2.56-.12.08-.19,0-.19,0,.21-.88-.5-1.56-1.49-1.55a3.13,3.13,0,0,1-2.77-1.07c-.89,1-2.89.65-3.83.45-.19,0-.19-.12,0-.16,1.23-.24,2.88-.81,1.49-1.44,0,0-2.64.65-3.7-1-.07-.08,0-.12.12-.08s2.77.91,3.32-.69c.39-1,.57-2.84,1.91-3.24-1.5-.39-2.09-1.19-1-2.23.12-.08.24-.16.25,0,.28,2.44,8.08.37,8.13-3-5.54.9-11.1.08-11.24-3.52-.14-3.44,5-5,4.94-6.65,0-1.2-1.61-1.47-2.42-1.47-2.17,0-4.52,1.65-4.9,3a.16.16,0,0,1-.25,0c-.77-.68-.94-1.79-.34-2.12.18-.08,0-.2-.19-.12-.49.2-4.71,0-4.79-1.86,0-.64.27-1,.2-1.28s.48-.32.68,0,.74,1.36,2.78,1.35c1.74,0,4.75-.57,6.8-.58,3.91,0,5.41,1.86,5.46,3.18.12,2.92-4.63,3.49-4.52,6.29.08,2.08,4.7,2.7,7.84.73a12.77,12.77,0,0,1,3.41-6.24c8.51,1.73,10-1.71,14.57-1.73,3.84,0,9,4.4,13,5l-.66-2.59-.44,0,0-2.16s1,1.39,1.12,1.59.32.16.37,0c.41-.68,1.23-1.92,1.23-1.92s.13,1.72.15,2.08c0,.12.13.16.25,0l2-1.92s-.44,1.48-.65,2.28c0,.12.13.16.25.08l2.66-1.69-1.33,2.28c-.06.12.07.2.25.12l3-1.33s-1.13,1.08-2,1.92c-.12.08,0,.16.19.12,1.84-.41,3.07-.73,3.07-.73l-2.3,1.53c-.12.08-.12.2.13.2h2.79l-3.07.89-.26-.2-2.65.45m-8.61,15.73c-.45,1.24-2.43,1.17-3,1,0,0-.06,0,0-.08.85-.4,1.15-.8,1.13-1.12,0-.84-2.61-1.79-3.42-1.79s-1,.52-2.4.53a3.35,3.35,0,0,1-2-.63c-.13-.08-.07-.12.06-.08,1.75.23,2.76-.85,2.68-2.76-.15-3.71-3.21-4.34-10.17-6-.13,0-.13-.12.06-.12,1.31.15,3.05-1.21,1.2-2.6a10.14,10.14,0,0,1,3.75-.93c5.15,0,9.2,3.6,10,4.12s2.1,1.35,2.88.59c.12-.08.18-.08.19,0,.06,1.52-1.86,1.52-2.62,1.25-.06,0-.13,0-.12,0,.37,1.56-1,4.12-1.07,4.2.25.12,2.48,1.47,4,1.46,1,0,1.19-1.28,2.74-1.29a2.58,2.58,0,0,1,1.51.51c.06,0,0,.12-.12.12-1.18,0-1.84.53-1.57,1.2,1.46-.8,3.69-.69,3.71,1.15,0,.08-.12.12-.18,0a2.71,2.71,0,0,0-2.86-.15c1.12.12,3,.91,1.4,2.39-.06.08-.12,0-.12,0,0-.32-.29-1.12-1.78-1.11s-2.63.93-3.85,0m-19.56-35.92a2.49,2.49,0,0,0,3.5.67c0-.44-1.33-.75-3.5-.67m8.08,3.41c2.5.39,3.71-.21,3.94-.69a.16.16,0,0,1,.31,0c.61,1.24-.84,2.12-2.15,2.12-2,0-2.21-.91-5.38-1.18-.31,0-.32-.28-.07-.32a13.82,13.82,0,0,1,3.35.07m42.87,45c.83,2.23,4.73,2,5.54,2,.12,0,.12-.08.06-.12-1.26-.52-2.22-1.19-2.25-2-.06-1.4,4-3.25,6-3.26,1.18,0,2.08.91,4.38.9a5.73,5.73,0,0,0,3.67-1.25c.06-.08,0-.12-.13-.12a4.06,4.06,0,0,1-4.81-2.46c-1.37-3.11-1.89-5.39.23-6.59,1.76-1,9.68-3,14-4.08.25-.08.18-.16,0-.2-1.19-.24-2.39-.71-2.61-1.67a1.51,1.51,0,0,1,1-1.84,19.36,19.36,0,0,0-8.85-2.53c-8.68,0-15.76,7.64-19.29,7.66a2.31,2.31,0,0,1-1.58-.59c-.13-.08-.25-.08-.24.08.09,2.28,2,2.47,3,2.47a4.94,4.94,0,0,0,1.6-.29c.12,0,.19,0,.19.08l0,.48c.11,2.72,4.63,5.66,4.63,5.66-1.93,1.32-6.8,3.58-8.21,2.38-.58-.48-3.3-3.46-6.68-1.06-.12.08-.05.2.19.2,2,0,3.57.83,3.06,2.15-2.85-1.43-6.75-1.18-6.61,2.14,0,.16.19.16.31.08,1.79-1.72,4.75-.58,5.2-.34-1.91.21-5.27,1.7-2.18,4.32.13.12.25.08.25,0,.24-1.76,1.84-2,3.2-2,2.73,0,4.78,1.58,6.82-.14m-96,2.29c.93.08,4.85.26,5.38-2,2.12,1.75,4.1.11,6.83.1,1.36,0,3,.31,3.37,2,0,.08.13.12.25,0,2.93-2.65-.54-4.11-2.53-4.31.42-.24,3.29-1.41,5.22.3.13.08.31,0,.31-.08-.13-3.31-4-3.54-6.78-2.09-.55-1.32,1-2.16,2.89-2.17.25,0,.31-.12.18-.2-3.57-2.38-6,.62-6.59,1.1-1.32,1.2-6.37-1-8.4-2.33,0,0,4.28-3,4.17-5.69l0-.48c0-.08.06-.12.18-.08a5.11,5.11,0,0,0,1.62.27c1.06,0,2.91-.21,2.82-2.49,0-.2-.13-.2-.25-.08a2.25,2.25,0,0,1-1.53.6c-3.53,0-11.22-7.55-19.9-7.52a18.28,18.28,0,0,0-8.64,2.59,1.64,1.64,0,0,1,1.19,1.83c-.08,1-1.24,1.48-2.48,1.69-.18,0-.24.12,0,.2,4.45,1.06,12.52,3,14.37,4,2.22,1.19,1.88,3.47.76,6.59s-3.68,2.57-4.61,2.49c-.19,0-.18,0-.12.12a6.21,6.21,0,0,0,3.77,1.23c2.29,0,3.13-.93,4.3-.93,2,0,6.21,1.82,6.27,3.21,0,.76-.87,1.48-2.09,2-.06,0-.06.12.07.12m67.59-45-2.27.69-1.09-1,2-.41-9.64-8.35a4.81,4.81,0,0,1-.14-1.92,13,13,0,0,1,2.82.63l9.76,8.27,1.2-1.08,1.16,1-1.69,1.2.9.76a5,5,0,0,1,4.36.54c.06,0,.06,0,0,0-.56-.08-2.74-.39-2.71.57,2.4-.45,3.37.59,3.63.91.07.08,0,.08-.06.08-.44-.08-2-.35-2.6.09l2,1.71c.39.36-1.56,1.32-2,1l-2.63-2.23s-8.07,2.86-10.09,3.67a4.87,4.87,0,0,0-1.86-2.95c2.46-.45,7.57-1.54,7.57-1.54a3.14,3.14,0,0,0,1.69.47,3.09,3.09,0,0,0,2.37-1.29c.06,0,0-.08-.06,0-.37.12-1.29.36-1.55.12Zm-32.08-.33c0-.68-.93-3.11.67-4.84-.52-.56-3.53-1.35-4.46-1.46-.31,0-.32-.2,0-.28,1.23-.36,4.09,0,4.57-.38a15.89,15.89,0,0,1,.57-2.72c.19,0,4,1.18,4,1.18.8,0,1.85-1.76,3-2.25.31-.12.5,0,.38.16-.35.52-.89,2.6-.49,3.16,3.34-.21,4.49.58,4.7,1.18.81.12,4,1.26,4,1.66a.67.67,0,0,1-.47.52s.22.76-.75,1.32c-2.15-1-4.93-.74-4.36,1,0,0,.51.36,3.12.35a1.7,1.7,0,0,1-.34.8s.64.48.22.92a11,11,0,0,0-3.62-.51c-.52.84,0,2,3.75,2.34,4.73.46,7.31,1.33,7.94,4.61-3.67-.19-5.92.94-8.67,1.83-4.17,1.29-9-.49-9-.49,1-.6,1.15-2.32-.56-3.15-.82,1.12-2.74,1.25-4,.69-.13-.08-.13-.16,0-.2,2-.73,2.16-1.93,1.17-3.24-1,1-3.4.21-3.68-.63,0,0,.06-.08.12,0a1.69,1.69,0,0,0,2.23-1.57"/></g></svg>