<svg height="25" viewBox="0 0 100 25" width="100" xmlns="http://www.w3.org/2000/svg"><g fill="none" fill-rule="evenodd"><path d="m17.2776442 20.1923077v-19.68750001h-5.234375v5.37259616c0 1.6045673.0300481 4.21874995.1682693 5.09014425-.4206731-.8173077-2.1634616-3.43149041-3.06490388-4.6394231l-4.3329327-5.82331731h-4.8076923v19.68750001h5.234375v-6.015625c0-1.6045673-.03004808-4.21875001-.16826924-5.09014424.5048077.87139423 2.19350962 3.40144234 3.06490385 4.61538464l4.69350957 6.4903846z" fill="#bebebe" fill-rule="nonzero"/><path d="m58.5576923 14.1466346c0-3.6838942-2.1935096-5.20432691-7.1454327-6.38221152-2.5300481-.58894231-3.2331731-.93149039-3.2331731-1.65865385 0-.703125.390625-1.20793269 2.0252404-1.20793269 1.9951923 0 3.7379808.67307692 5.4867789 1.85697115l2.6442307-4.27884615c-2.0793269-1.46033654-4.5012019-2.27764423-7.8485577-2.27764423-4.7536057 0-7.764423 2.50600961-7.764423 6.21394231 0 3.93629808 2.2776442 5.23437498 7.03125 6.32812498 2.6442307.6189904 3.3473557 1.0697116 3.3473557 1.796875 0 .9314904-.6189903 1.2680289-2.5600961 1.2680289-1.8269231 0-4.3329327-.985577-5.7692308-1.9711539l-2.6442308 4.2728366c2.0552885 1.3521634 5.1201924 2.3918269 8.2992789 2.3918269 4.7295673.0060096 8.1310096-1.8509616 8.1310096-6.3521635z" fill="#bebebe" fill-rule="nonzero"/><path d="m25.2764423 10.3064904c0-2.79447117 2.265625-5.05408655 5.0540865-5.05408655 2.7944712 0 5.0540866 2.265625 5.0540866 5.05408655 0 2.7944711-2.265625 5.0540865-5.0540866 5.0540865-2.7884615 0-5.0540865-2.2596154-5.0540865-5.0540865zm-5.2463942 0c0-5.69110578 4.6153846-10.3064904 10.3064904-10.3064904 5.6911057 0 10.3064903 4.61538462 10.3064903 10.3064904 0 5.6911058-4.6153846 10.3064904-10.3064903 10.3064904-5.6971154 0-10.3064904-4.6153846-10.3064904-10.3064904z" fill="#e61e14"/><g fill="#bebebe" fill-rule="nonzero" transform="translate(66.826923 6.790865)"><path d="m.04206731 8.26322115c0-.72716346.12620192-1.40625.38461538-2.03725961.25841346-.63701923.61899039-1.18990385 1.07572116-1.66466346.46274038-.47475962 1.015625-.84735577 1.66466346-1.11778846.64903846-.2704327 1.36418269-.40865385 2.14543269-.40865385s1.49038462.13822115 2.13341346.40865385c.64302885.27043269 1.18990385.64302884 1.65264423 1.11778846.46274039.47475961.81730769 1.02764423 1.07572111 1.66466346.2584135.63701923.3846154 1.31610577.3846154 2.03725961 0 .72716347-.1262019 1.40625-.3846154 2.03725965-.25841342.6370192-.61899034 1.1899038-1.07572111 1.6646634-.46274038.4747596-1.00961538.8533654-1.65264423 1.1298077-.64302884.2764423-1.35216346.4206731-2.13341346.4206731s-1.49639423-.1382212-2.14543269-.4206731c-.64903846-.2764423-1.20192308-.6550481-1.66466346-1.1298077-.46274039-.4747596-.8173077-1.0276442-1.07572116-1.6646634-.25240384-.63100965-.38461538-1.31009618-.38461538-2.03725965zm5.27644231 2.63822115c.37860576 0 .70913461-.0721154 1.00360576-.2223558.29447116-.1442307.54086539-.342548.74519231-.5949519.20432693-.25240383.35456731-.53485575.45072116-.84735575.09615384-.3125.14423077-.63701923.14423077-.9735577 0-.33653846-.04807693-.66105769-.14423077-.97355769-.09615385-.3125-.24639423-.59495192-.45072116-.83533654-.20432692-.24639423-.45072115-.43870192-.74519231-.58293269-.29447115-.14423077-.625-.22235577-1.00360576-.22235577-.37860577 0-.71514424.07211539-1.015625.22235577-.30048077.14423077-.546875.34254808-.74519231.58293269-.19831731.24639423-.34254808.52283654-.45072116.83533654-.10817307.3125-.15625.63701923-.15625.97355769 0 .33653847.05408654.6610577.15625.9735577.10216347.3125.25240385.59495192.45072116.84735575.19230769.2524039.44471154.4507212.74519231.5949519.30048076.1442308.63701923.2223558 1.015625.2223558z"/><path d="m12.3677885 3.36538462h2.890625c.030048.18028846.0480769.36057692.0600961.53485576.0120192.17427885.0300481.35456731.0420673.53485577.3185096-.40264423.7331731-.71514423 1.2319712-.93149038.5048077-.21634615 1.0276442-.32451923 1.5685096-.32451923.7091346 0 1.3401442.13822115 1.8810096.42067308.546875.2764423.9975962.65504807 1.3581731 1.11778846.3605769.46875.6370192 1.00360577.8173077 1.61057692.1802884.60697115.2704327 1.23197115.2704327 1.875 0 .90745192-.15625 1.69471154-.4627404 2.3617788-.3064904.6670674-.703125 1.219952-1.1899039 1.6526443-.4867788.4326923-1.0396634.7512019-1.6526442.9615384-.6129808.2103366-1.2199519.3125-1.8209135.3125-.4747596 0-.8653846-.0420673-1.171875-.1262019-.3064903-.0841346-.5889423-.1682692-.8353365-.2524038v4.2548077h-2.9927885v-14.00240388zm2.9927884 7.21754808c.390625.2644231.9675481.3966346 1.7367789.3966346.7391827 0 1.3221154-.2463942 1.748798-.7451923.4266827-.49278846.6370193-1.15384615.6370193-1.97716346 0-.31850962-.0360577-.63701923-.1141827-.94350962-.078125-.30649038-.1983173-.57692307-.3545673-.80528846-.1622596-.22836538-.3725962-.41466346-.625-.55288461-.2584135-.13822116-.5769231-.21033654-.9495193-.21033654-.3365384 0-.6310096.06009615-.889423.18629807-.2584135.12620193-.4747596.29447116-.6490385.5048077-.1742788.21033654-.3064904.44471154-.3966346.70913461-.0901442.26442308-.1382212.53485577-.1382212.81730769v2.62019232z"/><path d="m25.0240385 9.77163462c.4326923.37860578.8774038.66706728 1.328125.86538458.4507211.204327.9495192.3004808 1.4963942.3004808.6430288 0 1.1778846-.1742788 1.5985577-.5228365.4266827-.3485577.6370192-.83533658.6370192-1.46634619 0-.48677885-.1622596-.91947116-.4927884-1.29807693-.3305289-.37860576-.8473558-.56490384-1.5564904-.56490384-.2644231 0-.5108173.02403846-.7451923.07211538-.2283654.04807693-.4086539.10216346-.5348558.15625l-.7752404-1.23197115 3.3713942-3.45552885h-4.9158653v-2.61418269h8.2872596v2.15745192l-2.7403846 3.09495193c1.045673.1983173 1.8389423.63701923 2.373798 1.31610577.5348558.68509615.8052885 1.54447115.8052885 2.57211538 0 .69711539-.1442308 1.31610577-.4266827 1.86298077-.2884615.546875-.6670673 1.0036058-1.1418269 1.3701923-.4747596.3725962-1.0216346.6550481-1.640625.8473558s-1.2680289.2944711-1.9350962.2944711c-.9795673 0-1.8509615-.1442307-2.6262019-.4387019-.7752404-.2944711-1.4423077-.6911058-2.0012019-1.1899038z"/></g></g></svg>