<svg height='451' width='451'  fill="#FFFFFF" xmlns="http://www.w3.org/2000/svg" class="icon" viewBox="0 0 1024 1024" version="1.1" x="0px" y="0px"><path fill="#FFFFFF" d="M440.23808 635.76064c-13.312 0-26.624-5.07904-36.7616-15.23712-95.1296-95.1296-95.1296-249.93792 0-345.06752l192-192c46.08-46.08 107.35616-71.4752 172.544-71.4752s126.44352 25.37472 172.544 71.45472c95.1296 95.1296 95.1296 249.93792 0 345.06752l-87.7568 87.7568c-20.31616 20.31616-53.22752 20.31616-73.54368 0s-20.31616-53.22752 0-73.54368l87.7568-87.7568c54.5792-54.5792 54.5792-143.40096 0-197.98016-26.43968-26.43968-61.60384-41.00096-99.00032-41.00096s-72.56064 14.56128-99.00032 41.00096l-192 192c-54.5792 54.5792-54.5792 143.40096 0 198.00064 20.31616 20.31616 20.31616 53.22752 0 73.54368-10.15808 10.15808-23.47008 15.23712-36.7616 15.23712zM256 1011.99872c-65.16736 0-126.44352-25.37472-172.544-71.45472-95.1296-95.1296-95.1296-249.93792 0-345.06752l87.7568-87.7568c20.31616-20.31616 53.22752-20.31616 73.54368 0s20.31616 53.22752 0 73.54368l-87.7568 87.7568c-54.5792 54.5792-54.5792 143.40096 0 198.00064 26.43968 26.43968 61.60384 41.00096 99.00032 41.00096s72.56064-14.56128 99.00032-41.00096l192-192c54.5792-54.5792 54.5792-143.40096 0-198.00064-20.31616-20.31616-20.31616-53.22752 0-73.54368s53.22752-20.31616 73.54368 0c95.1296 95.1296 95.1296 249.93792 0 345.06752l-192 192c-46.08 46.08-107.35616 71.4752-172.544 71.4752z"></path></svg>