<svg height='451' width='451'  fill="#FFFFFF" xmlns:dc="http://purl.org/dc/elements/1.1/" xmlns:cc="http://creativecommons.org/ns#" xmlns:rdf="http://www.w3.org/1999/02/22-rdf-syntax-ns#" xmlns:svg="http://www.w3.org/2000/svg" xmlns="http://www.w3.org/2000/svg" xmlns:sodipodi="http://sodipodi.sourceforge.net/DTD/sodipodi-0.dtd" xmlns:inkscape="http://www.inkscape.org/namespaces/inkscape" version="1.1" x="0px" y="0px" viewBox="0 0 100 100"><g transform="translate(0,-952.36218)"><path style="color:#000000;enable-background:accumulate;" d="m 16,974.36218 c -1.17299,0 -2.26501,0.3289 -3.1875,0.90625 l 34.25,29.81257 c 1.81717,1.5807 3.99222,1.5806 5.8125,0 L 87.1875,975.26843 C 86.26501,974.69109 85.17299,974.36218 84,974.36218 l -68,0 z m -5.65625,4.0625 C 10.1359,979.0347 10,979.68007 10,980.36218 l 0,44.00002 c 0,3.324 2.67599,6 6,6 l 68,0 c 3.32401,0 6,-2.676 6,-6 l 0,-44.00002 c 0,-0.68211 -0.1359,-1.32749 -0.34375,-1.9375 L 55.5,1008.081 c -3.18464,2.7654 -7.87861,2.7697 -11.0625,0 L 10.34375,978.42468 z" fill="#FFFFFF" stroke="none" marker="none" visibility="visible" display="inline" overflow="visible"></path></g></svg>